<svg width="1080" height="1080" viewBox="0 0 1080 1080" xmlns="http://www.w3.org/2000/svg"><path d="M945,556.9999999999999C969.6969997695012,616.090396505471,945.2086296159232,709.5281946571021,916.0460096199538,757.2711895164132C886.8833896239844,805.0141843757243,822.9984057782181,833.7552202722327,770.0242800241834,843.4579691558666C717.0501542701488,853.1607180395006,653.959518021692,803.7921625096897,598.2012550957462,815.487682818217C542.4429921698004,827.1832031267443,488.4568334118267,909.100538670017,435.47470246850855,913.6310910070306C382.4925715251904,918.1616433440441,309.26033897695874,882.8189496568311,280.3084694358372,842.6709968402984C251.35659989471566,802.5230440237656,275.16542705021374,729.6457692658563,261.76348522177926,672.7433741078343C248.36154339334482,615.8409789498122,190.50388176198175,558.4923543835214,199.89681846523047,501.25662589216597C209.2897551684792,444.02089740081055,282.4333806256352,374.6436226429013,318.12110544127165,329.32900315970187C353.8088302569081,284.01438367650246,362.82971820282984,251.96804748404816,414.023167359049,229.36890899296947C465.2166165152682,206.76977050189078,574.2614436184937,185.23214866374485,625.2818003785867,193.73417221322973C676.3021571386797,202.2361957627146,696.3816061488805,245.54861057815262,720.1453079196071,280.3810502898788C743.9090096903338,315.2134900016049,730.3882289895481,356.6256521985664,767.8640110029469,402.7288104835866C805.3397930163457,448.83196876860677,920.3030002304988,497.90960349452877,945,556.9999999999999C969.6969997695012,616.090396505471,945.2086296159232,709.5281946571021,916.0460096199538,757.2711895164132" fill="#422afb"/></svg>