<?xml version="1.0" standalone="no"?>
<svg xmlns:xlink="http://www.w3.org/1999/xlink" id="wave" style="transform:rotate(0deg); transition: 0.3s" viewBox="0 0 1440 490" version="1.1" xmlns="http://www.w3.org/2000/svg"><defs><linearGradient id="sw-gradient-0" x1="0" x2="0" y1="1" y2="0"><stop stop-color="rgba(66, 42, 251, 1)" offset="0%"/><stop stop-color="rgba(29.621, 0, 255, 1)" offset="100%"/></linearGradient></defs><path style="transform:translate(0, 0px); opacity:1" fill="url(#sw-gradient-0)" d="M0,49L48,89.8C96,131,192,212,288,204.2C384,196,480,98,576,81.7C672,65,768,131,864,155.2C960,180,1056,163,1152,130.7C1248,98,1344,49,1440,81.7C1536,114,1632,229,1728,302.2C1824,376,1920,408,2016,367.5C2112,327,2208,212,2304,196C2400,180,2496,261,2592,285.8C2688,310,2784,278,2880,269.5C2976,261,3072,278,3168,294C3264,310,3360,327,3456,318.5C3552,310,3648,278,3744,245C3840,212,3936,180,4032,179.7C4128,180,4224,212,4320,253.2C4416,294,4512,343,4608,302.2C4704,261,4800,131,4896,130.7C4992,131,5088,261,5184,294C5280,327,5376,261,5472,253.2C5568,245,5664,294,5760,285.8C5856,278,5952,212,6048,204.2C6144,196,6240,245,6336,285.8C6432,327,6528,359,6624,375.7C6720,392,6816,392,6864,392L6912,392L6912,490L6864,490C6816,490,6720,490,6624,490C6528,490,6432,490,6336,490C6240,490,6144,490,6048,490C5952,490,5856,490,5760,490C5664,490,5568,490,5472,490C5376,490,5280,490,5184,490C5088,490,4992,490,4896,490C4800,490,4704,490,4608,490C4512,490,4416,490,4320,490C4224,490,4128,490,4032,490C3936,490,3840,490,3744,490C3648,490,3552,490,3456,490C3360,490,3264,490,3168,490C3072,490,2976,490,2880,490C2784,490,2688,490,2592,490C2496,490,2400,490,2304,490C2208,490,2112,490,2016,490C1920,490,1824,490,1728,490C1632,490,1536,490,1440,490C1344,490,1248,490,1152,490C1056,490,960,490,864,490C768,490,672,490,576,490C480,490,384,490,288,490C192,490,96,490,48,490L0,490Z"/></svg>